<?xml version="1.0" encoding="UTF-8"?>
<svg id="svg3815" clip-rule="evenodd" fill-rule="evenodd" image-rendering="optimizeQuality" shape-rendering="geometricPrecision" text-rendering="geometricPrecision" version="1.1" viewBox="0 0 48 48" xmlns="http://www.w3.org/2000/svg">
 <defs id="defs3803">
  <linearGradient id="a" x1="153.65" x2="206.35" y1="34.743" y2="195.26" gradientUnits="userSpaceOnUse">
   <stop id="stop3788" stop-color="#FCFCFD" offset="0"/>
   <stop id="stop3790" stop-color="#DDDEDE" offset="1"/>
  </linearGradient>
  <linearGradient id="b" x1="293.65" x2="346.35" y1="34.743" y2="195.26" gradientUnits="userSpaceOnUse">
   <stop id="stop3793" stop-color="#FCFCFD" offset="0"/>
   <stop id="stop3795" stop-color="#DDDEDE" offset="1"/>
  </linearGradient>
  <radialGradient id="c" cx="250" cy="366.88" r="140" gradientUnits="userSpaceOnUse">
   <stop id="stop3798" stop-color="#FDFEFE" offset="0"/>
   <stop id="stop3800" stop-color="#DDDEDE" offset="1"/>
  </radialGradient>
 </defs>
 <g id="g3813" transform="matrix(.09738 0 0 .09738 -.32184 -.33341)" stroke="#434242" stroke-linejoin="round" stroke-width="10">
  <path id="path3805" d="m110 200v-17c0-84 60-153 133-153h7v170z" fill="url(#a)"/>
  <path id="path3807" d="m390 200v-17c0-84-60-153-133-153h-7v170z" fill="url(#b)"/>
  <path id="path3809" d="m110 200v112c0 82 54 153 140 153s140-71 140-153v-112z" fill="url(#c)"/>
  <rect id="rect3811" x="235" y="115" width="30.002" height="100" rx="10" ry="13" fill="#279dff"/>
 </g>
 <circle id="circle3747" class="cls-1" cx="24" cy="24" r="23" fill="none" stroke="#f41f20" stroke-miterlimit="10" stroke-width="2px"/>
 <g id="layer3" transform="matrix(.09738 0 0 .09738 -.32184 -.33341)">
  <path id="path4644" d="m438.56 108.05-362.29 296.61h-8.4746" fill="none" stroke="#f40000" stroke-width="20"/>
 </g>
</svg>
